<svg xmlns="http://www.w3.org/2000/svg" version="1.1" xmlns:xlink="http://www.w3.org/1999/xlink" xmlns:svgjs="http://svgjs.com/svgjs" width="512" height="512" x="0" y="0" viewBox="0 0 512 512" style="enable-background:new 0 0 512 512" xml:space="preserve"><g><g><path d="m38.248 99.06c7.508-3.501 10.757-12.426 7.255-19.934l-16.905-36.251c-3.501-7.508-12.426-10.756-19.934-7.255-7.508 3.501-10.756 12.426-7.255 19.934l16.905 36.251c3.501 7.508 12.426 10.756 19.934 7.255z" fill="#ffffff" data-original="#000000"></path><path d="m72.657 97.558c7.785 2.833 16.393-1.18 19.226-8.965l13.68-37.588c2.833-7.785-1.18-16.392-8.965-19.226-7.785-2.833-16.392 1.18-19.226 8.965l-13.68 37.588c-2.834 7.785 1.18 16.393 8.965 19.226z" fill="#ffffff" data-original="#000000"></path><path d="m98.049 120.826c3.501 7.508 12.426 10.757 19.934 7.256l36.252-16.904c7.508-3.501 10.757-12.426 7.256-19.934-3.501-7.508-12.426-10.757-19.934-7.256l-36.252 16.904c-7.508 3.501-10.757 12.426-7.256 19.934z" fill="#ffffff" data-original="#000000"></path><ellipse cx="117.245" cy="350.98" rx="115.006" ry="115.006" transform="matrix(.707 -.707 .707 .707 -213.84 185.705)" fill="#ffffff" data-original="#000000"></ellipse><path d="m36.601 199.114-10.205 4.759c-10.011 4.668-14.342 16.568-9.674 26.578l5.231 11.217c10.008-8.731 21.384-16.221 34.009-22.108 15.593-7.271 31.992-11.645 48.893-13.065l-6.566-14.08c-4.668-10.011-16.568-14.342-26.578-9.674l-7.283 3.396c-2.45-13.349-.456-27.407 5.947-39.08 3.984-7.264 1.326-16.381-5.938-20.365-4.357-2.389-9.38-2.389-13.564-.438-2.79 1.301-5.207 3.471-6.801 6.377-11.096 20.231-13.632 44.208-7.471 66.483z" fill="#ffffff" data-original="#000000"></path><path d="m281.744 75.413c17.59-6.179 36.242-9.413 55.253-9.413 19.013 0 37.667 3.235 55.259 9.414l9.031-30.103c1.376-4.587.526-9.422-2.333-13.265-2.858-3.842-7.244-6.046-12.034-6.046h-99.839c-4.789 0-9.175 2.203-12.034 6.046-2.859 3.842-3.709 8.677-2.333 13.265z" fill="#ffffff" data-original="#000000"></path><path d="m348.927 301.89c-.14-.05-.276-.098-.415-.148v51.417c10.158-4.491 16.161-14.071 17.682-23.12.821-4.882 2.001-21.339-17.267-28.149z" fill="#ffffff" data-original="#000000"></path><path d="m312.382 243.326c-1.264 6.703.438 13.011 4.335 16.066 1.978 1.552 4.279 3.054 6.796 4.514v-36.288c-6.598 3.399-10.069 10.07-11.131 15.708z" fill="#ffffff" data-original="#000000"></path><path d="m499.817 370.093c-9.096-13.9-14.75-31.275-16.806-51.641l-10.045-99.53c-3.408-33.762-19.146-64.886-44.317-87.64-25.168-22.751-57.716-35.281-91.649-35.282-33.933.001-66.481 12.531-91.649 35.282-25.17 22.754-40.909 53.878-44.317 87.64l-1.307 12.953c20.795 14.376 37.897 34.146 48.938 57.823 16.348 35.06 18.049 74.43 4.79 110.858-10.974 30.151-31.101 55.249-57.586 72.276 12.559 8.304 27.713 13.168 43.899 13.168h194.465c40.455 0 74.51-30.323 77.531-69.033 1.305-16.728-2.826-32.937-11.947-46.874zm-108.969-35.909c-2.069 12.306-8.26 23.725-17.432 32.152-7.122 6.544-15.586 10.945-24.904 13.034v11.63c0 6.903-5.597 12.5-12.5 12.5s-12.5-5.597-12.5-12.5v-10.518c-12.007-.833-21.608-3.756-35.458-12.816-5.777-3.779-7.397-11.526-3.618-17.304s11.527-7.398 17.303-3.618c8.722 5.706 14.025 7.891 21.772 8.659v-63.488c-9.517-4.292-16.529-8.384-22.224-12.851-11.329-8.887-16.492-24.354-13.474-40.368 3.3-17.511 15.471-31.438 31.763-36.345 1.332-.401 2.64-.746 3.935-1.064v-10.287c0-6.903 5.597-12.5 12.5-12.5s12.5 5.597 12.5 12.5v8.837c14.169 2.064 24.128 8.91 28.859 14.34 4.535 5.205 3.992 13.101-1.214 17.636-5.187 4.521-13.047 3.995-17.59-1.161-.231-.237-3.547-3.517-10.055-5.292v49.783c2.934 1.1 5.871 2.161 8.747 3.177 24.646 8.71 37.831 30.638 33.59 55.864z" fill="#ffffff" data-original="#000000"></path></g></g></svg>