<svg xmlns="http://www.w3.org/2000/svg" version="1.1" xmlns:xlink="http://www.w3.org/1999/xlink" xmlns:svgjs="http://svgjs.com/svgjs" width="512" height="512" x="0" y="0" viewBox="0 0 511.119 511.119" style="enable-background:new 0 0 512 512" xml:space="preserve" class=""><g><g><path d="m272.162 242.821c-17.262-9.96-37.151-2.078-45.378 12.135-9.15 15.896-3.698 36.273 12.149 45.424 33.785 19.502 94.801 32.37 134.189 39.087-25.516-30.748-67.175-77.146-100.96-96.646z" fill="#ffffff" data-original="#000000" class=""></path><path d="m384.284 256.58h126.835c-4.802-83.138-49.28-155.624-114.784-198.833l-63.423 109.859c27.927 20.81 47.18 52.593 51.372 88.974z" fill="#ffffff" data-original="#000000" class=""></path><path d="m178.207 167.606-63.423-109.859c-65.504 43.209-109.982 115.695-114.784 198.833h126.835c4.192-36.381 23.445-68.164 51.372-88.974z" fill="#ffffff" data-original="#000000" class=""></path><path d="m306.947 152.579 63.426-109.864c-68.099-35.866-161.528-35.865-229.627 0l63.426 109.864c31.123-14.029 71.652-14.029 102.775 0z" fill="#ffffff" data-original="#000000" class=""></path><path d="m190.667 383.77c-34.586-20.046-59.034-55.624-63.83-97.19h-126.836c5.113 88.414 55.093 164.785 127.516 206.7 7.181 4.156 16.376 1.705 20.524-5.481l48.206-83.492c4.162-7.209 1.621-16.363-5.58-20.537z" fill="#ffffff" data-original="#000000" class=""></path><path d="m381.365 302.782c22.138 25.403 37.852 46.312 39.243 48.172 3.593 4.805 3.978 11.289.977 16.485-2.998 5.198-8.805 8.108-14.763 7.4-2.308-.274-28.309-3.427-61.413-9.901-7.51 7.228-15.879 13.57-24.956 18.831-7.202 4.174-9.743 13.328-5.581 20.537l48.206 83.492c4.149 7.186 13.343 9.637 20.524 5.481 72.423-41.915 122.403-118.286 127.516-206.7h-126.834c-.639 5.513-1.613 10.923-2.919 16.203z" fill="#ffffff" data-original="#000000" class=""></path></g></g></svg>