<svg xmlns="http://www.w3.org/2000/svg" version="1.1" xmlns:xlink="http://www.w3.org/1999/xlink" xmlns:svgjs="http://svgjs.com/svgjs" width="512" height="512" x="0" y="0" viewBox="0 0 48 48" style="enable-background:new 0 0 512 512" xml:space="preserve" class=""><g><g fill="rgb(0,0,0)"><path d="m24 46.5a22.5 22.5 0 1 0 -22.5-22.5 22.5 22.5 0 0 0 22.5 22.5zm-6.841-19.663a1.5 1.5 0 1 1 0-3h2.606v-9.716a1.5 1.5 0 0 1 1.5-1.5h3.967a7.108 7.108 0 1 1 0 14.216h-2.467v1.777h6.61a1.5 1.5 0 0 1 0 3h-6.61v2.273a1.5 1.5 0 0 1 -3 0v-2.273h-2.606a1.5 1.5 0 1 1 0-3h2.606v-1.777z" fill="#ffffff" data-original="#000000"></path><path d="m29.341 19.729a4.113 4.113 0 0 0 -4.109-4.108h-2.467v8.216h2.467a4.113 4.113 0 0 0 4.109-4.108z" fill="#ffffff" data-original="#000000"></path></g></g></svg>